<svg width="598" height="81" viewBox="0 0 598 81" fill="none" xmlns="http://www.w3.org/2000/svg">
<path d="M31.8788 20.3264L14.5973 73H0.676086L24.2854 9.45996H33.1443L31.8788 20.3264ZM46.2364 73L28.9113 20.3264L27.5148 9.45996H36.461L60.2012 73H46.2364ZM45.4509 49.347V59.6025H11.8916V49.347H45.4509ZM90.8366 50.3508H74.6461V40.139H90.8366C93.3386 40.139 95.3752 39.7317 96.9462 38.9171C98.5173 38.0733 99.6665 36.9096 100.394 35.4258C101.121 33.9421 101.485 32.2692 101.485 30.4072C101.485 28.5162 101.121 26.756 100.394 25.1268C99.6665 23.4975 98.5173 22.1883 96.9462 21.1992C95.3752 20.21 93.3386 19.7154 90.8366 19.7154H79.1847V73H66.0927V9.45996H90.8366C95.8116 9.45996 100.074 10.3619 103.623 12.1656C107.202 13.9403 109.936 16.3987 111.828 19.5408C113.719 22.6829 114.664 26.276 114.664 30.3199C114.664 34.4221 113.719 37.9715 111.828 40.9681C109.936 43.9648 107.202 46.2777 103.623 47.9069C100.074 49.5362 95.8116 50.3508 90.8366 50.3508ZM148.442 50.3508H132.251V40.139H148.442C150.944 40.139 152.98 39.7317 154.551 38.9171C156.122 38.0733 157.271 36.9096 157.999 35.4258C158.726 33.9421 159.09 32.2692 159.09 30.4072C159.09 28.5162 158.726 26.756 157.999 25.1268C157.271 23.4975 156.122 22.1883 154.551 21.1992C152.98 20.21 150.944 19.7154 148.442 19.7154H136.79V73H123.698V9.45996H148.442C153.417 9.45996 157.679 10.3619 161.228 12.1656C164.807 13.9403 167.541 16.3987 169.432 19.5408C171.324 22.6829 172.269 26.276 172.269 30.3199C172.269 34.4221 171.324 37.9715 169.432 40.9681C167.541 43.9648 164.807 46.2777 161.228 47.9069C157.679 49.5362 153.417 50.3508 148.442 50.3508Z" fill="white"/>
<g filter="url(#filter0_d_0_1)">
<path d="M159.12 10.46H182.816C187.675 10.46 191.85 11.1873 195.341 12.642C198.861 14.0966 201.567 16.2496 203.458 19.1007C205.349 21.9519 206.295 25.4576 206.295 29.618C206.295 33.0219 205.713 35.9458 204.549 38.3896C203.414 40.8044 201.8 42.8264 199.705 44.4556C197.639 46.0558 195.21 47.3359 192.417 48.296L188.271 50.478H167.673L167.586 40.2662H182.904C185.202 40.2662 187.108 39.8589 188.62 39.0443C190.133 38.2296 191.268 37.095 192.024 35.6403C192.81 34.1856 193.203 32.4982 193.203 30.5781C193.203 28.5415 192.824 26.7814 192.068 25.2976C191.312 23.8138 190.162 22.6792 188.62 21.8937C187.078 21.1082 185.144 20.7154 182.816 20.7154H172.212V74H159.12V10.46ZM194.643 74L180.154 45.6776L193.988 45.5903L208.651 73.389V74H194.643ZM237.323 74.8728C233.657 74.8728 230.369 74.2909 227.46 73.1272C224.551 71.9344 222.078 70.2906 220.041 68.1959C218.034 66.1011 216.492 63.6718 215.415 60.908C214.339 58.115 213.801 55.1475 213.801 52.0054V50.2598C213.801 46.6813 214.31 43.4083 215.328 40.4407C216.346 37.4732 217.801 34.8984 219.692 32.7164C221.612 30.5344 223.94 28.8616 226.675 27.6978C229.409 26.505 232.493 25.9086 235.926 25.9086C239.272 25.9086 242.24 26.4613 244.829 27.5669C247.418 28.6724 249.586 30.2435 251.331 32.28C253.106 34.3166 254.444 36.7604 255.346 39.6116C256.248 42.4336 256.699 45.5757 256.699 49.0378V54.2747H219.169V45.8958H244.349V44.9357C244.349 43.1901 244.029 41.6336 243.389 40.2662C242.778 38.8697 241.847 37.7641 240.596 36.9495C239.345 36.1349 237.745 35.7276 235.795 35.7276C234.137 35.7276 232.712 36.0913 231.519 36.8186C230.326 37.5459 229.351 38.5642 228.595 39.8734C227.867 41.1826 227.315 42.7246 226.936 44.4993C226.587 46.2449 226.413 48.165 226.413 50.2598V52.0054C226.413 53.8964 226.675 55.642 227.198 57.2422C227.751 58.8423 228.522 60.2243 229.511 61.388C230.53 62.5517 231.751 63.4536 233.177 64.0937C234.632 64.7337 236.275 65.0538 238.108 65.0538C240.378 65.0538 242.487 64.6174 244.436 63.7446C246.415 62.8427 248.116 61.4898 249.542 59.686L255.652 66.3193C254.662 67.7449 253.31 69.1123 251.593 70.4215C249.906 71.7307 247.869 72.8072 245.484 73.6509C243.098 74.4655 240.378 74.8728 237.323 74.8728ZM289.385 60.9516C289.385 60.0497 289.124 59.2351 288.6 58.5078C288.076 57.7804 287.102 57.1113 285.676 56.5003C284.28 55.8602 282.258 55.2784 279.61 54.7547C277.224 54.231 274.999 53.5764 272.933 52.7909C270.897 51.9763 269.122 51.0016 267.609 49.867C266.125 48.7324 264.962 47.3941 264.118 45.8521C263.274 44.2811 262.852 42.4918 262.852 40.4844C262.852 38.506 263.274 36.644 264.118 34.8984C264.991 33.1528 266.227 31.6109 267.827 30.2726C269.457 28.9052 271.435 27.8433 273.762 27.0869C276.119 26.3013 278.766 25.9086 281.705 25.9086C285.807 25.9086 289.327 26.5632 292.266 27.8724C295.233 29.1816 297.503 30.9854 299.074 33.2838C300.674 35.553 301.474 38.1424 301.474 41.0517H288.905C288.905 39.8298 288.644 38.7388 288.12 37.7787C287.625 36.7895 286.84 36.0185 285.763 35.4658C284.716 34.8839 283.349 34.593 281.661 34.593C280.265 34.593 279.057 34.8403 278.039 35.3348C277.021 35.8003 276.235 36.4404 275.682 37.255C275.159 38.0405 274.897 38.9133 274.897 39.8734C274.897 40.6007 275.042 41.2554 275.333 41.8372C275.653 42.39 276.163 42.8991 276.861 43.3646C277.559 43.8301 278.461 44.2665 279.566 44.6738C280.701 45.052 282.098 45.4012 283.756 45.7212C287.16 46.4194 290.2 47.3359 292.877 48.4705C295.553 49.5761 297.677 51.0889 299.248 53.0091C300.819 54.9002 301.605 57.3877 301.605 60.4716C301.605 62.5663 301.139 64.4865 300.208 66.2321C299.277 67.9777 297.939 69.5051 296.193 70.8143C294.448 72.0944 292.353 73.0981 289.909 73.8254C287.494 74.5237 284.774 74.8728 281.748 74.8728C277.355 74.8728 273.631 74.0873 270.577 72.5162C267.551 70.9452 265.253 68.9523 263.681 66.5375C262.14 64.0937 261.369 61.5917 261.369 59.0314H273.282C273.34 60.7479 273.777 62.1299 274.591 63.1772C275.435 64.2246 276.497 64.981 277.777 65.4465C279.086 65.912 280.497 66.1448 282.01 66.1448C283.64 66.1448 284.992 65.9266 286.069 65.4902C287.145 65.0247 287.96 64.4137 288.513 63.6573C289.095 62.8718 289.385 61.9699 289.385 60.9516ZM332.895 26.7814V35.684H305.401V26.7814H332.895ZM312.209 15.1295H324.778V59.7733C324.778 61.1407 324.952 62.1881 325.301 62.9154C325.68 63.6427 326.232 64.1519 326.96 64.4428C327.687 64.7047 328.603 64.8356 329.709 64.8356C330.495 64.8356 331.193 64.8065 331.804 64.7483C332.444 64.661 332.982 64.5737 333.418 64.4865L333.462 73.7382C332.386 74.0873 331.222 74.3637 329.971 74.5673C328.72 74.771 327.338 74.8728 325.825 74.8728C323.061 74.8728 320.646 74.4219 318.581 73.52C316.544 72.589 314.973 71.1052 313.868 69.0687C312.762 67.0321 312.209 64.3555 312.209 61.0389V15.1295ZM365.538 63.3518V42.3173C365.538 40.8044 365.29 39.5097 364.796 38.4333C364.301 37.3277 363.53 36.4695 362.483 35.8585C361.464 35.2476 360.141 34.9421 358.511 34.9421C357.115 34.9421 355.908 35.1894 354.889 35.684C353.871 36.1495 353.086 36.8332 352.533 37.735C351.98 38.6078 351.704 39.6407 351.704 40.8335H339.135C339.135 38.826 339.601 36.9204 340.532 35.1166C341.463 33.3128 342.816 31.7273 344.59 30.3599C346.365 28.9634 348.474 27.8724 350.918 27.0869C353.391 26.3013 356.155 25.9086 359.21 25.9086C362.875 25.9086 366.134 26.5195 368.985 27.7415C371.836 28.9634 374.076 30.7963 375.706 33.2401C377.364 35.684 378.193 38.7388 378.193 42.4045V62.6099C378.193 65.1992 378.353 67.3231 378.673 68.9814C378.993 70.6106 379.459 72.0362 380.07 73.2581V74H367.37C366.759 72.7199 366.294 71.1198 365.974 69.1996C365.683 67.2503 365.538 65.3011 365.538 63.3518ZM367.196 45.2411L367.283 52.3545H360.257C358.599 52.3545 357.159 52.5436 355.937 52.9218C354.715 53.3 353.711 53.8383 352.926 54.5365C352.14 55.2056 351.558 55.9912 351.18 56.8931C350.831 57.795 350.656 58.7841 350.656 59.8606C350.656 60.9371 350.904 61.9117 351.398 62.7845C351.893 63.6282 352.606 64.2973 353.536 64.7919C354.467 65.2574 355.558 65.4902 356.81 65.4902C358.701 65.4902 360.344 65.112 361.741 64.3555C363.137 63.5991 364.214 62.6681 364.97 61.5626C365.756 60.457 366.163 59.4096 366.192 58.4205L369.509 63.7446C369.043 64.9374 368.403 66.1739 367.589 67.454C366.803 68.7341 365.799 69.9415 364.577 71.0761C363.356 72.1817 361.886 73.0981 360.17 73.8254C358.453 74.5237 356.417 74.8728 354.06 74.8728C351.064 74.8728 348.343 74.2764 345.899 73.0836C343.485 71.8616 341.565 70.1888 340.139 68.0649C338.742 65.912 338.044 63.4682 338.044 60.7334C338.044 58.2605 338.51 56.0639 339.441 54.1437C340.372 52.2236 341.739 50.6089 343.543 49.2997C345.376 47.9614 347.66 46.9577 350.394 46.2885C353.129 45.5903 356.3 45.2411 359.908 45.2411H367.196ZM415.811 62.6972V26.7814H428.379V74H416.553L415.811 62.6972ZM417.207 53.0091L420.917 52.9218C420.917 56.0639 420.553 58.9878 419.826 61.6935C419.099 64.3701 418.008 66.6976 416.553 68.6759C415.098 70.6252 413.265 72.1526 411.054 73.2581C408.843 74.3346 406.239 74.8728 403.243 74.8728C400.944 74.8728 398.82 74.5528 396.871 73.9127C394.951 73.2436 393.293 72.2108 391.896 70.8143C390.529 69.3887 389.452 67.5704 388.667 65.3593C387.91 63.1191 387.532 60.4279 387.532 57.2858V26.7814H400.101V57.3731C400.101 58.7696 400.261 59.9479 400.581 60.908C400.93 61.868 401.41 62.6536 402.021 63.2645C402.632 63.8755 403.344 64.3119 404.159 64.5737C405.003 64.8356 405.934 64.9665 406.952 64.9665C409.541 64.9665 411.578 64.4428 413.062 63.3954C414.575 62.3481 415.636 60.9225 416.247 59.1187C416.887 57.2858 417.207 55.2493 417.207 53.0091ZM450.549 37.0804V74H437.98V26.7814H449.807L450.549 37.0804ZM464.775 26.4759L464.557 38.1278C463.946 38.0405 463.204 37.9678 462.331 37.9096C461.488 37.8223 460.717 37.7787 460.018 37.7787C458.244 37.7787 456.702 38.0114 455.393 38.4769C454.112 38.9133 453.036 39.5679 452.163 40.4407C451.319 41.3135 450.679 42.3754 450.243 43.6265C449.836 44.8775 449.603 46.3031 449.545 47.9032L447.014 47.1177C447.014 44.0629 447.319 41.2554 447.93 38.6951C448.541 36.1058 449.428 33.8511 450.592 31.9309C451.785 30.0107 453.24 28.527 454.956 27.4796C456.673 26.4323 458.636 25.9086 460.848 25.9086C461.546 25.9086 462.259 25.9668 462.986 26.0831C463.713 26.1704 464.31 26.3013 464.775 26.4759ZM494.712 63.3518V42.3173C494.712 40.8044 494.465 39.5097 493.97 38.4333C493.476 37.3277 492.705 36.4695 491.658 35.8585C490.639 35.2476 489.316 34.9421 487.686 34.9421C486.29 34.9421 485.082 35.1894 484.064 35.684C483.046 36.1495 482.26 36.8332 481.708 37.735C481.155 38.6078 480.878 39.6407 480.878 40.8335H468.31C468.31 38.826 468.776 36.9204 469.707 35.1166C470.638 33.3128 471.99 31.7273 473.765 30.3599C475.54 28.9634 477.649 27.8724 480.093 27.0869C482.566 26.3013 485.33 25.9086 488.385 25.9086C492.05 25.9086 495.309 26.5195 498.16 27.7415C501.011 28.9634 503.251 30.7963 504.88 33.2401C506.539 35.684 507.368 38.7388 507.368 42.4045V62.6099C507.368 65.1992 507.528 67.3231 507.848 68.9814C508.168 70.6106 508.634 72.0362 509.245 73.2581V74H496.545C495.934 72.7199 495.469 71.1198 495.149 69.1996C494.858 67.2503 494.712 65.3011 494.712 63.3518ZM496.371 45.2411L496.458 52.3545H489.432C487.774 52.3545 486.333 52.5436 485.112 52.9218C483.89 53.3 482.886 53.8383 482.1 54.5365C481.315 55.2056 480.733 55.9912 480.355 56.8931C480.006 57.795 479.831 58.7841 479.831 59.8606C479.831 60.9371 480.078 61.9117 480.573 62.7845C481.068 63.6282 481.78 64.2973 482.711 64.7919C483.642 65.2574 484.733 65.4902 485.984 65.4902C487.875 65.4902 489.519 65.112 490.916 64.3555C492.312 63.5991 493.389 62.6681 494.145 61.5626C494.931 60.457 495.338 59.4096 495.367 58.4205L498.684 63.7446C498.218 64.9374 497.578 66.1739 496.763 67.454C495.978 68.7341 494.974 69.9415 493.752 71.0761C492.53 72.1817 491.061 73.0981 489.345 73.8254C487.628 74.5237 485.592 74.8728 483.235 74.8728C480.238 74.8728 477.518 74.2764 475.074 73.0836C472.66 71.8616 470.739 70.1888 469.314 68.0649C467.917 65.912 467.219 63.4682 467.219 60.7334C467.219 58.2605 467.685 56.0639 468.616 54.1437C469.547 52.2236 470.914 50.6089 472.718 49.2997C474.551 47.9614 476.834 46.9577 479.569 46.2885C482.304 45.5903 485.475 45.2411 489.083 45.2411H496.371ZM529.363 36.8622V74H516.794V26.7814H528.577L529.363 36.8622ZM527.53 48.7324H524.126C524.126 45.2411 524.577 42.0991 525.479 39.3061C526.381 36.484 527.646 34.0838 529.275 32.1055C530.905 30.098 532.839 28.5706 535.079 27.5233C537.349 26.4468 539.88 25.9086 542.673 25.9086C544.884 25.9086 546.906 26.2286 548.739 26.8687C550.572 27.5087 552.143 28.527 553.452 29.9235C554.79 31.3199 555.809 33.1674 556.507 35.4658C557.234 37.7641 557.598 40.5717 557.598 43.8883V74H544.942V43.8447C544.942 41.7499 544.651 40.1207 544.069 38.957C543.487 37.7932 542.629 36.9786 541.495 36.5131C540.389 36.0185 539.022 35.7712 537.392 35.7712C535.705 35.7712 534.236 36.1058 532.985 36.775C531.763 37.4441 530.745 38.3751 529.93 39.5679C529.144 40.7317 528.548 42.0991 528.141 43.6701C527.733 45.2411 527.53 46.9286 527.53 48.7324ZM590.284 26.7814V35.684H562.791V26.7814H590.284ZM569.599 15.1295H582.167V59.7733C582.167 61.1407 582.342 62.1881 582.691 62.9154C583.069 63.6427 583.622 64.1519 584.349 64.4428C585.077 64.7047 585.993 64.8356 587.099 64.8356C587.884 64.8356 588.582 64.8065 589.193 64.7483C589.833 64.661 590.372 64.5737 590.808 64.4865L590.852 73.7382C589.775 74.0873 588.611 74.3637 587.36 74.5673C586.109 74.771 584.727 74.8728 583.215 74.8728C580.451 74.8728 578.036 74.4219 575.97 73.52C573.934 72.589 572.363 71.1052 571.257 69.0687C570.152 67.0321 569.599 64.3555 569.599 61.0389V15.1295Z" fill="#FF3F4B"/>
</g>
<defs>
<filter id="filter0_d_0_1" x="150.12" y="0.459961" width="447.732" height="80.4128" filterUnits="userSpaceOnUse" color-interpolation-filters="sRGB">
<feFlood flood-opacity="0" result="BackgroundImageFix"/>
<feColorMatrix in="SourceAlpha" type="matrix" values="0 0 0 0 0 0 0 0 0 0 0 0 0 0 0 0 0 0 127 0" result="hardAlpha"/>
<feOffset dx="-1" dy="-2"/>
<feGaussianBlur stdDeviation="4"/>
<feComposite in2="hardAlpha" operator="out"/>
<feColorMatrix type="matrix" values="0 0 0 0 0 0 0 0 0 0 0 0 0 0 0 0 0 0 0.5 0"/>
<feBlend mode="normal" in2="BackgroundImageFix" result="effect1_dropShadow_0_1"/>
<feBlend mode="normal" in="SourceGraphic" in2="effect1_dropShadow_0_1" result="shape"/>
</filter>
</defs>
</svg>
